<?xml version="1.0" encoding="UTF-8" standalone="no"?>
<!-- Created with Inkscape (http://www.inkscape.org/) -->

<svg
   xmlns:dc="http://purl.org/dc/elements/1.1/"
   xmlns:cc="http://creativecommons.org/ns#"
   xmlns:rdf="http://www.w3.org/1999/02/22-rdf-syntax-ns#"
   xmlns:svg="http://www.w3.org/2000/svg"
   xmlns="http://www.w3.org/2000/svg"
   xmlns:sodipodi="http://sodipodi.sourceforge.net/DTD/sodipodi-0.dtd"
   xmlns:inkscape="http://www.inkscape.org/namespaces/inkscape"
   width="64"
   height="64"
   viewBox="0 0 16.933333 16.933334"
   version="1.1"
   id="svg8"
   inkscape:version="0.92.4 (5da689c313, 2019-01-14)"
   sodipodi:docname="Filter_Stage.svg">
  <defs
     id="defs2" />
  <sodipodi:namedview
     id="base"
     pagecolor="#ffffff"
     bordercolor="#666666"
     borderopacity="1.0"
     inkscape:pageopacity="0.0"
     inkscape:pageshadow="2"
     inkscape:zoom="22.4"
     inkscape:cx="52.966745"
     inkscape:cy="37.527198"
     inkscape:document-units="mm"
     inkscape:current-layer="layer1"
     showgrid="true"
     units="px"
     inkscape:window-width="3840"
     inkscape:window-height="2028"
     inkscape:window-x="-16"
     inkscape:window-y="-16"
     inkscape:window-maximized="1">
    <inkscape:grid
       type="xygrid"
       id="grid3721" />
  </sodipodi:namedview>
  <metadata
     id="metadata5">
    <rdf:RDF>
      <cc:Work
         rdf:about="">
        <dc:format>image/svg+xml</dc:format>
        <dc:type
           rdf:resource="http://purl.org/dc/dcmitype/StillImage" />
        <dc:title></dc:title>
      </cc:Work>
    </rdf:RDF>
  </metadata>
  <g
     inkscape:label="Capa 1"
     inkscape:groupmode="layer"
     id="layer1"
     transform="translate(0,-280.06664)">
    <path
       style="fill:none;stroke:#000000;stroke-width:0.26458332px;stroke-linecap:butt;stroke-linejoin:miter;stroke-opacity:1"
       d="m 3.96875,291.70831 v 3.96875 H 1.3229166 L 0.79375,295.14789 v -4.7625 l 0,-9.78958 h 7.9375 l 0.5291667,0.52916 v 2.64584 H 3.96875 v 2.11666 h 2.1166667 l 0.5291666,0.52917 v 2.64583 H 3.96875 Z"
       id="path3747"
       inkscape:connector-curvature="0" />
    <path
       style="fill:none;stroke:#000000;stroke-width:0.26458332px;stroke-linecap:butt;stroke-linejoin:miter;stroke-opacity:1"
       d="m 1.3229166,295.67706 v -14.55209 h 7.9375"
       id="path3749"
       inkscape:connector-curvature="0" />
    <path
       style="fill:none;stroke:#000000;stroke-width:0.26458332px;stroke-linecap:butt;stroke-linejoin:miter;stroke-opacity:1"
       d="m 3.96875,285.88747 v 0.52917 h 2.6458332"
       id="path3751"
       inkscape:connector-curvature="0" />
    <path
       style="fill:none;stroke:#000000;stroke-width:0.26458332px;stroke-linecap:butt;stroke-linejoin:miter;stroke-opacity:1"
       d="M 1.3229166,281.12497 0.79374999,280.59581"
       id="path3753"
       inkscape:connector-curvature="0" />
    <path
       style="fill:none;stroke:#000000;stroke-width:0.26458332px;stroke-linecap:butt;stroke-linejoin:miter;stroke-opacity:1"
       d="M 13.229167,293.56039 H 7.4083326 v 2.64583 l 0.5291667,0.52917 H 15.875 v -2.64584 -5.29166 l -0.529167,-0.52917 h -4.7625 v -2.11667 H 15.875 v -2.64583 l -0.529167,-0.52917 H 9.2604161"
       id="path3755"
       inkscape:connector-curvature="0" />
    <path
       style="fill:none;stroke:#000000;stroke-width:0.26458332px;stroke-linecap:butt;stroke-linejoin:miter;stroke-opacity:1"
       d="m 7.9374996,296.7354 v -2.64584 h 5.2916674 v -2.64583 H 7.9374996 l -0.5291667,-0.52917 v -2.64583 -2.11667 -1.32291 l 4e-7,-1.05834"
       id="path3757"
       inkscape:connector-curvature="0" />
    <path
       style="fill:none;stroke:#000000;stroke-width:0.26458332px;stroke-linecap:butt;stroke-linejoin:miter;stroke-opacity:1"
       d="M 15.875,283.77081 H 9.2604167"
       id="path3761"
       inkscape:connector-curvature="0" />
    <path
       style="fill:none;stroke:#000000;stroke-width:0.26458332px;stroke-linecap:butt;stroke-linejoin:miter;stroke-opacity:1"
       d="m 7.9375,291.44372 v -6.61458 l 0,-1.05833"
       id="path3763"
       inkscape:connector-curvature="0" />
    <path
       style="fill:none;stroke:#000000;stroke-width:0.26458332px;stroke-linecap:butt;stroke-linejoin:miter;stroke-opacity:1"
       d="m 10.583333,288.26872 v 0.52917 H 15.875"
       id="path3765"
       inkscape:connector-curvature="0" />
    <path
       style="fill:#ffff00;stroke-width:0.04464286"
       d="m 30.529245,57.999588 v -4.464286 h 10 10 v -5.535714 -5.535715 h -10 -10 V 28.490659 14.517445 H 44.99353 59.457816 v 3.973116 3.973116 l -9.988839,0.01126 -9.98884,0.01126 v 5.513393 5.513393 l 9.98884,0.01126 9.988839,0.01126 V 47.999686 62.463874 H 44.99353 30.529245 Z"
       id="path3767"
       inkscape:connector-curvature="0"
       transform="matrix(0.26458333,0,0,0.26458333,0,280.06664)" />
    <path
       style="fill:#ffff00;stroke-width:0.04464286"
       d="M 5.5292445,31.504052 V 4.5174447 H 19.99353 34.457816 V 9.0040519 13.490659 H 24.45764 14.457465 l 0.01134,5.502232 0.01134,5.502232 4.98884,0.01135 4.988839,0.01135 v 4.486414 4.486414 h -5 -5 v 12.5 12.5 H 9.9935302 5.5292445 Z"
       id="path3769"
       inkscape:connector-curvature="0"
       transform="matrix(0.26458333,0,0,0.26458333,0,280.06664)" />
    <path
       style="fill:#808000;stroke-width:0.04464286"
       d="M 3.9779052,57.229539 3.5203159,56.770387 V 30.008014 3.2456424 L 3.989103,3.7144295 4.45789,4.1832165 4.4466923,30.935952 4.4354945,57.68869 Z"
       id="path3771"
       inkscape:connector-curvature="0"
       transform="matrix(0.26458333,0,0,0.26458333,0,280.06664)" />
    <path
       style="fill:#808000;stroke-width:0.04464286"
       d="M 4.7479945,2.9995876 4.2584458,2.5085162 H 18.521839 32.785232 L 33.27478,2.9995876 33.764329,3.490659 H 19.500936 5.2375433 Z"
       id="path3773"
       inkscape:connector-curvature="0"
       transform="matrix(0.26458333,0,0,0.26458333,0,280.06664)" />
    <path
       style="fill:#808000;stroke-width:0.04464286"
       d="M 35.529245,12.508516 V 11.526373 H 46.656917 57.78459 l 0.836613,0.837483 c 0.741298,0.74207 0.836613,0.853964 0.836613,0.982143 v 0.14466 H 47.49353 35.529245 Z"
       id="path3775"
       inkscape:connector-curvature="0"
       transform="matrix(0.26458333,0,0,0.26458333,0,280.06664)" />
    <path
       style="fill:#808000;stroke-width:0.04464286"
       d="M 28.977108,41.246594 28.520316,40.788242 V 27.652843 14.517445 h 0.46875 0.46875 v 13.59375 c 0,7.476562 -0.0054,13.59375 -0.01196,13.59375 -0.0066,0 -0.217515,-0.206258 -0.46875,-0.458351 z"
       id="path3777"
       inkscape:connector-curvature="0"
       transform="matrix(0.26458333,0,0,0.26458333,0,280.06664)" />
    <path
       style="fill:#808000;stroke-width:0.04464286"
       d="m 15.529245,22.999588 v -0.491072 h 3.627993 3.627994 l 0.489548,0.491072 0.489549,0.491071 h -4.117542 -4.117542 z"
       id="path3779"
       inkscape:connector-curvature="0"
       transform="matrix(0.26458333,0,0,0.26458333,0,280.06664)" />
    <path
       style="fill:#808000;stroke-width:0.04464286"
       d="m 40.529245,31.995123 v -0.46875 h 8.62803 8.628029 l 0.467155,0.46875 0.467155,0.46875 h -9.095185 -9.095184 z"
       id="path3781"
       inkscape:connector-curvature="0"
       transform="matrix(0.26458333,0,0,0.26458333,0,280.06664)" />
    <path
       style="fill:#808000;stroke-width:0.04464286"
       d="m 28.977905,61.247399 -0.457589,-0.459157 v -4.630934 -4.630935 h 10.46875 10.46875 v 0.468652 0.468652 l -9.988839,0.01126 -9.98884,0.01126 -0.02232,4.610181 -0.02232,4.610181 z"
       id="path3783"
       inkscape:connector-curvature="0"
       transform="matrix(0.26458333,0,0,0.26458333,0,280.06664)" />
  </g>
</svg>
